<?xml version="1.0" encoding="UTF-8" standalone="no"?>
<!-- Created with Inkscape (http://www.inkscape.org/) -->

<svg
   version="1.1"
   id="svg69"
   width="467.17203"
   height="243.69276"
   viewBox="0 0 467.17203 243.69276"
   sodipodi:docname="logo4.svg"
   inkscape:version="1.1.2 (0a00cf5339, 2022-02-04)"
   xmlns:inkscape="http://www.inkscape.org/namespaces/inkscape"
   xmlns:sodipodi="http://sodipodi.sourceforge.net/DTD/sodipodi-0.dtd"
   xmlns="http://www.w3.org/2000/svg"
   xmlns:svg="http://www.w3.org/2000/svg">
  <defs
     id="defs73" />
  <sodipodi:namedview
     id="namedview71"
     pagecolor="#ffffff"
     bordercolor="#666666"
     borderopacity="1.0"
     inkscape:pageshadow="2"
     inkscape:pageopacity="0.0"
     inkscape:pagecheckerboard="0"
     showgrid="false"
     inkscape:zoom="1.6043738"
     inkscape:cx="244.95539"
     inkscape:cy="205.99938"
     inkscape:window-width="1850"
     inkscape:window-height="1016"
     inkscape:window-x="1990"
     inkscape:window-y="27"
     inkscape:window-maximized="1"
     inkscape:current-layer="g75"
     showguides="false" />
  <g
     inkscape:groupmode="layer"
     inkscape:label="Image"
     id="g75"
     transform="translate(-12.485653,-104.3225)">
    <path
       style="fill:#000000"
       d="m 75.899759,346.80437 c -4.745298,-2.11646 -5.384345,-5.4098 -5.384345,-27.74836 v -19.85078 h 4.979295 4.979294 l 0.270706,20.14193 c 0.237527,17.67329 0.478722,20.27304 1.967936,21.2116 1.152079,0.72609 2.597485,0.7533 4.5,0.0847 l 2.802769,-0.98492 0.270706,-20.22665 0.270705,-20.22666 h 4.979295 4.97929 v 24 24 h -3.59362 c -2.752611,0 -3.716014,-0.46805 -4.116627,-2 -0.642915,-2.45851 -0.730727,-2.45967 -4.080242,-0.0539 -3.699001,2.65674 -9.033311,3.3443 -12.825162,1.65309 z m 44.301721,0.40634 c -7.49328,-2.30797 -9.64215,-7.65789 -9.64215,-24.00548 0,-18.84824 3.21042,-24 14.95608,-24 9.73505,0 14.01365,4.65534 13.98635,15.21788 -0.0252,9.76421 0.0722,9.67007 -10.34354,9.99601 l -9.14281,0.28611 0.16744,6.16148 c 0.21252,7.82037 1.50613,10.33852 5.31104,10.33852 3.099,0 6.02152,-3.02007 6.02152,-6.22251 0,-1.41509 0.83822,-1.77749 4.11129,-1.77749 h 4.11129 l -0.68527,3.75 c -0.86401,4.72817 -3.01232,8.10146 -5.83961,9.16939 -3.86113,1.45844 -10.10943,1.97999 -13.01163,1.08609 z m 10.31393,-33.07122 c 0,-6.62713 -1.29117,-8.93426 -5,-8.93426 -3.26864,0 -4.45057,1.55438 -5.52112,7.26088 -1.07854,5.7491 -0.27206,6.73912 5.48974,6.73912 h 5.03138 z m 33.35443,33.37369 c -1.18006,-0.23082 -2.93731,-1.29454 -3.90499,-2.36382 -2.25306,-2.4896 -3.44944,-2.47022 -3.44944,0.0559 0,1.66667 -0.66667,2 -4,2 h -4 v -31.5 -31.5 h 5 5 v 9.02568 9.02568 l 2.95034,-1.52568 c 4.45379,-2.30314 10.28144,-1.9736 12.80873,0.72432 3.56838,3.80929 4.24093,7.35445 4.24093,22.35494 0,16.77074 -1.37932,21.28583 -7.11324,23.28469 -3.24118,1.12988 -3.75009,1.15815 -7.53233,0.41832 z m 4.35802,-9.30795 c 1.71227,-3.40259 1.71199,-26.59823 -3.6e-4,-30 -1.41605,-2.81313 -5.94588,-3.88079 -8.27256,-1.94981 -1.94115,1.61101 -2.11528,31.87406 -0.19445,33.79489 2.06411,2.06411 7.04652,0.97841 8.46737,-1.84508 z m 49.9301,8.99384 c -7.75267,-2.38308 -9.97892,-8.41733 -9.46576,-25.65691 0.54036,-18.15374 3.31641,-22.33693 14.82321,-22.33693 9.73505,0 14.01365,4.65534 13.98635,15.21788 -0.0252,9.76421 0.0722,9.67007 -10.34354,9.99601 l -9.14281,0.28611 0.16744,6.16148 c 0.21126,7.77401 1.51238,10.33852 5.2453,10.33852 3.2274,0 4.62436,-1.30748 5.61527,-5.25559 0.60757,-2.42076 1.16088,-2.74441 4.69169,-2.74441 h 4.00288 l -0.68527,3.75 c -0.86401,4.72817 -3.01232,8.10146 -5.83961,9.16939 -3.87886,1.46514 -10.1146,1.97834 -13.05515,1.07445 z m 10.35745,-33.05958 c 0,-6.62713 -1.29117,-8.93426 -5,-8.93426 -3.52147,0 -4.6344,1.76326 -5.57144,8.82703 l -0.68622,5.17297 h 5.62883 5.62883 z m 24.20904,33.12424 c -4.43163,-1.10779 -7.04386,-3.6611 -7.78446,-7.60885 -1.00032,-5.33215 0.17724,-7.44965 4.14281,-7.44965 3.12874,0 3.43261,0.25925 3.43261,2.92857 0,3.72237 2.33545,6.07143 6.03624,6.07143 2.52491,0 4.96376,-2.17527 4.96376,-4.42729 0,-0.30733 -3.66794,-4.71956 -8.15097,-9.80495 -9.01825,-10.22998 -11.31373,-14.47714 -10.41468,-19.26948 0.93205,-4.96828 4.6382,-7.75682 11.01177,-8.28537 10.58454,-0.87775 14.55388,1.79153 14.55388,9.78709 0,4.99232 -0.005,5 -3.30794,5 -3.07725,0 -3.37363,-0.29638 -4.25,-4.25 -0.85982,-3.879 -1.23844,-4.2783 -4.3372,-4.57418 -2.04185,-0.19497 -3.72977,0.20363 -4.23468,1 -1.98814,3.13579 -0.61636,5.86139 7.16908,14.24429 10.0891,10.86335 11.68398,14.70368 8.76605,21.10783 -2.11084,4.6328 -10.56188,7.28899 -17.59627,5.53056 z m 94.41026,-0.0617 c -7.75484,-2.40592 -10.09236,-8.10369 -10.04987,-24.49679 0.027,-10.3994 0.32582,-12.56413 2.24065,-16.22939 1.21525,-2.32617 3.53278,-4.91367 5.15007,-5.75 3.73328,-1.93056 12.28528,-1.96217 15.96556,-0.059 4.81079,2.48776 7.22857,11.51703 5.45648,20.37745 l -0.6178,3.08904 -9.1322,0.28596 -9.13219,0.28593 0.0762,6.68816 c 0.086,7.54277 1.3403,9.81184 5.4238,9.81184 3.16976,0 4.66291,-1.44848 5.15418,-5 0.28929,-2.09135 0.9588,-2.55073 4.09582,-2.81037 3.59601,-0.29762 3.75,-0.18265 3.75,2.79966 0,4.37298 -2.41545,8.53617 -5.70284,9.82923 -4.28166,1.68415 -9.48774,2.168 -12.67786,1.17827 z m 10.3807,-32.4317 c 0,-6.80585 -1.39989,-9.5651 -4.8528,-9.5651 -3.93812,0 -5.40963,2.11936 -5.94378,8.56062 l -0.45108,5.43938 h 5.62383 5.62383 z m -344.764877,2.6849 0.264882,-29.75 h 6.5 6.5 l 1.616053,5 c 0.88883,2.75 2.862063,10.175 4.384963,16.5 3.791559,15.74733 4.092742,16.44275 4.980603,11.5 0.752508,-4.18924 7.142512,-27.36732 8.615365,-31.25 0.754854,-1.98992 1.549935,-2.25 6.878265,-2.25 h 6.02475 v 30 30 h -4.641649 -4.64165 l 0.504703,-23.63098 c 0.277586,-12.99704 0.172603,-23.00954 -0.233297,-22.25 -0.405901,0.75954 -2.895691,9.59348 -5.532868,19.63098 l -4.794868,18.25 h -3.190153 -3.190153 l -4.640032,-17.34506 c -2.552018,-9.53978 -4.640032,-17.83823 -4.640032,-18.44098 0,-0.60276 -0.424706,-1.35841 -0.943793,-1.67922 -0.587865,-0.36332 -0.717245,8.0997 -0.343072,22.44098 l 0.600718,23.02428 h -5.171807 -5.171808 z m 175.764877,-1.75 v -31.5 h 5 5 v 31.5 31.5 h -5 -5 z m 110,1.5 v -30 h 5 5 v 13.16667 c 0,7.24166 0.3375,12.84114 0.75,12.44329 0.4125,-0.39786 3.25148,-6.21036 6.30883,-12.91667 l 5.55884,-12.19329 4.69116,-0.30479 c 2.58015,-0.16764 4.69117,0.0381 4.69117,0.45718 0,0.41908 -2.775,6.61972 -6.16667,13.77919 -3.39166,7.15948 -6.15492,13.47875 -6.14058,14.04282 0.0144,0.56408 3.20723,7.8881 7.09528,16.2756 l 7.0692,15.25 h -5.26779 -5.2678 l -5.82591,-13.25 c -3.20425,-7.2875 -6.20162,-13.6775 -6.66082,-14.2 -0.4592,-0.5225 -0.83491,5.44 -0.83491,13.25 v 14.2 h -5 -5 z m 77,6 v -24 h 3.38337 c 2.60684,0 3.51068,0.48686 3.93809,2.12128 l 0.55473,2.12127 2.69676,-2.12127 c 3.36319,-2.64549 9.48548,-2.84053 11.65378,-0.37128 2.24539,2.55704 3.04969,5.96302 2.32294,9.83694 -0.58192,3.10189 -0.95527,3.41306 -4.09498,3.41306 -3.22779,0 -3.4557,-0.21346 -3.47,-3.25 -0.0205,-4.35328 -1.2237,-5.99387 -4.09778,-5.58749 l -2.38691,0.33749 -0.27029,20.75 -0.27029,20.75 h -4.97971 -4.97971 z m 32,-7.5 v -31.5 h 5 5 v 31.5 31.5 h -5 -5 z m 21,7.5 v -24 h 5 5 v 24 24 h -5 -5 z m 21,0 v -24 h 3.48095 c 2.84491,0 3.59153,0.44061 4.08617,2.41139 l 0.60522,2.41139 3.55337,-2.41139 c 5.06375,-3.43635 12.03327,-3.36051 15.34998,0.16703 2.38658,2.53829 2.42931,2.91185 2.74545,24 l 0.32114,21.42158 h -5.07114 -5.07114 v -19.8 c 0,-21.22095 -0.22249,-22.2 -5.04501,-22.2 -5.48591,0 -5.95499,1.79826 -5.95499,22.82874 v 19.17126 h -4.5 -4.5 z m -18.72008,-32.02942 c -2.69149,-1.0717 -3.85914,-5.01978 -2.32977,-7.87744 1.53795,-2.87369 8.50261,-2.98418 10.01467,-0.15888 1.36743,2.55507 1.30636,4.3385 -0.21482,6.27364 -1.66645,2.11992 -4.74723,2.84688 -7.47008,1.76268 z M 243.51541,251.32283 c -7.88576,-2.54473 -11.64531,-4.71039 -17.31574,-9.97457 -4.7137,-4.376 -13.17102,-15.9896 -12.28746,-16.87316 0.22326,-0.22326 2.78199,0.29968 5.68607,1.1621 6.28226,1.86563 10.80633,1.98112 16.05111,0.40974 l 3.86602,-1.15829 v -32.42116 -32.42116 l -2.75,0.63124 c -1.5125,0.34718 -9.725,2.52552 -18.25,4.84076 l -15.5,4.20951 -0.25342,31.98869 -0.25341,31.9887 3.75341,2.45246 c 5.58143,3.64688 18.57272,16.27381 15.94829,15.501 -14.23176,-4.19079 -30.34057,-16.66004 -39.18442,-30.33124 -8.87701,-13.72244 -12.01845,-24.75882 -11.98988,-42.12221 0.0169,-10.23621 0.44191,-13.8537 2.34706,-19.97478 8.93399,-28.70408 30.49692,-48.07407 59.63237,-53.56776 16.41914,-3.09595 30.99066,-0.88316 47.5,7.21322 8.03995,3.94289 10.88936,6.05522 18.54006,13.74412 14.49112,14.56346 21.91214,31.34291 21.93,49.5852 0.008,8.19419 -0.35496,10.28005 -2.64078,15.17514 -6.7106,14.37067 -22.61099,23.78932 -40.26078,23.84859 -8.57084,0.0288 -14.83691,2.38279 -26.75322,10.05053 -5.13645,3.30513 -11.11896,6.16413 -15.64921,7.47865 l -7.33394,2.12804 3.33394,2.81936 c 7.99166,6.75818 21.50981,10.39777 31.66732,8.526 6.23055,-1.14813 14.03728,-4.70843 18.62753,-8.49518 3.34054,-2.7558 2.93069,-4.35114 -0.62527,-2.43387 -1.31651,0.70981 -7.13541,1.4243 -13.33565,1.63744 l -11,0.37813 2.75394,-2.51185 c 1.51467,-1.38151 4.43967,-2.79439 6.5,-3.13973 14.80083,-2.48079 20.49647,-5.18242 31.90862,-15.13531 4.03559,-3.51957 7.33744,-5.92015 7.33744,-5.33464 0,2.87214 -10.41106,22.12854 -14.40006,26.63448 -11.78863,13.31637 -31.14341,18.80232 -47.59994,13.49181 z m -47.23502,-86.26278 c 0.40426,-0.39337 11.08502,-3.47357 23.73502,-6.84487 20.22764,-5.3908 23.43587,-6.0019 26.61602,-5.0698 6.14554,1.80126 6.70251,1.52227 7.36669,-3.69014 0.3329,-2.6125 0.83086,-6.2125 1.10659,-8 l 0.50133,-3.25 h 9.82603 9.82603 l 0.72806,11.25 c 0.73848,11.41114 1.24922,12.70453 5.02925,12.73606 1.93,0.0161 1.97724,-0.42964 1.34965,-12.73469 -0.35769,-7.01325 -0.69519,-13.76387 -0.75,-15.00137 -0.086,-1.94172 -0.64769,-2.25 -4.09965,-2.25 -2.88889,0 -4,0.41667 -4,1.5 0,1.05127 -1.06059,1.5 -3.54531,1.5 -3.54094,0 -3.54455,-0.005 -2.92209,-3.75 1.07905,-6.49275 0.64237,-6.24752 11.18602,-6.2818 11.26384,-0.0366 11.20873,-0.3735 -1.08297,-6.62009 -39.13286,-19.887131 -86.79957,1.78323 -97.70379,44.41833 -5.04317,19.71857 -0.93689,40.78674 11.2525,57.73355 l 4.31564,6 0.26498,-30.46498 c 0.14574,-16.75573 0.59574,-30.78683 1,-31.1802 z m 62.4979,48.08442 c 3.16958,-1.63957 7.78208,-3.25779 10.25,-3.59606 l 4.48712,-0.61503 v -14.76436 -14.76435 l 7.04543,1.81226 7.04543,1.81225 -0.29543,-6.10476 -0.29543,-6.10476 -19.5,-5.28959 c -10.725,-2.90928 -19.8375,-5.29753 -20.25,-5.30722 -0.4125,-0.01 -0.75,13.52658 -0.75,30.08058 v 30.0982 l 3.25,-2.13806 c 1.7875,-1.17594 5.84329,-3.47953 9.01288,-5.1191 z m 33.06365,-6.87956 c 7.75992,-2.6698 16.9818,-9.08469 15.37287,-10.69361 -0.50817,-0.50817 -25.57131,-7.35506 -26.9494,-7.36219 -0.4125,-0.002 -0.75,4.49612 -0.75,9.99612 v 10 h 3.34345 c 1.8389,0 5.88128,-0.87314 8.98308,-1.94032 z m 21.72561,-20.71768 c 0.76247,-2.31027 1.01444,-6.82354 0.68391,-12.24999 -0.91079,-14.95312 -8.00971,-30.41567 -19.07967,-41.55853 -5.07469,-5.10811 -6.06212,-5.73348 -6.43818,-4.07752 -0.24429,1.07578 -0.11871,9.76828 0.27908,19.31668 0.71184,17.08658 0.76099,17.37507 3.11299,18.26929 2.28617,0.86921 2.38973,1.31672 2.38973,10.32681 v 9.41823 l 7.25,2.02921 c 10.04736,2.81218 10.40214,2.76786 11.80214,-1.47418 z m -44.25833,-33.59199 -0.29381,-7.25 -3.61962,-0.30259 c -4.09656,-0.34247 -4.84205,0.95241 -4.86673,8.45325 -0.013,3.95639 0.16186,4.19728 3.73635,5.14665 2.0625,0.54779 4.10721,1.04249 4.54381,1.09934 0.43659,0.0568 0.66159,-3.15915 0.5,-7.14665 z m -63.79381,64.80901 c 0,-3.74961 0.18885,-3.96911 4.25,-4.93981 2.64338,-0.63183 2.75,-0.50564 2.75,3.25475 0,4.01536 -1.10109,5.12604 -5.08179,5.12604 -1.51931,0 -1.91821,-0.71557 -1.91821,-3.44098 z m 12,-5.56981 c 0,-4.19599 0.15438,-4.39106 4.25,-5.37 2.65287,-0.6341 2.75,-0.51536 2.75,3.36174 0,2.21048 -0.11547,4.01905 -0.2566,4.01905 -0.14113,0 -1.71613,0.41859 -3.5,0.93019 l -3.2434,0.9302 z m 12,-6 c 0,-4.19599 0.15438,-4.39106 4.25,-5.37 2.65287,-0.6341 2.75,-0.51536 2.75,3.36174 0,2.21048 -0.11547,4.01905 -0.2566,4.01905 -0.14113,0 -1.71613,0.41859 -3.5,0.93019 l -3.2434,0.9302 z m -24,-4.87233 c 0,-3.49914 0.33899,-4.0394 3.14922,-5.01905 1.73208,-0.60381 3.30708,-1.09783 3.5,-1.09783 0.70676,0 0.32713,7.89523 -0.39922,8.30272 -0.4125,0.23142 -1.9875,0.71655 -3.5,1.07807 -2.64421,0.63203 -2.75,0.50647 -2.75,-3.26391 z m 12,-6.06924 c 0,-3.66117 0.26818,-4.06054 3.25,-4.83974 3.16967,-0.82829 3.25787,-0.76395 3.56822,2.60319 0.3606,3.91228 -0.18774,4.66425 -4.06822,5.57885 -2.64886,0.62432 -2.75,0.5014 -2.75,-3.3423 z m 12,-5.93076 c 0,-3.49914 0.33899,-4.0394 3.14922,-5.01904 1.73208,-0.60381 3.30708,-1.09783 3.5,-1.09783 0.70676,0 0.32713,7.89522 -0.39922,8.30271 -0.4125,0.23142 -1.9875,0.71655 -3.5,1.07807 -2.64421,0.63203 -2.75,0.50647 -2.75,-3.26391 z m -24,-4.9491 c 0,-3.5084 0.29574,-3.92297 3.5,-4.90639 l 3.5,-1.07418 v 3.93115 c 0,3.29969 -0.41203,4.08779 -2.5651,4.90639 -3.99773,1.51993 -4.4349,1.2383 -4.4349,-2.85697 z m 12,-6.05114 c 0,-3.18187 0.40644,-3.99229 2.25,-4.48634 4.14807,-1.11164 4.75,-0.74485 4.75,2.89446 0,2.86346 -0.48125,3.70772 -2.5651,4.5 -4.00307,1.52196 -4.4349,1.2388 -4.4349,-2.90812 z m 12,-6 c 0,-3.18187 0.40644,-3.99229 2.25,-4.48634 4.14807,-1.11164 4.75,-0.74485 4.75,2.89446 0,2.86346 -0.48125,3.70772 -2.5651,4.5 -4.00307,1.52196 -4.4349,1.2388 -4.4349,-2.90812 z"
       id="path180" />
  </g>
</svg>
